<?xml version="1.0" encoding="UTF-8" standalone="no"?>
<svg xmlns="http://www.w3.org/2000/svg" width="256" height="256" viewBox="0 0 256 256">
	<path d="M128.004 45.443A40.235 40.235 0 0 0 87.77 85.678a40.235 40.235 0 0 0 40.234 40.236 40.235 40.235 0 0 0 40.236-40.236 40.235 40.235 0 0 0-40.236-40.235Zm0 11.786a28.45 28.45 0 0 1 28.451 28.449 28.45 28.45 0 0 1-28.451 28.45 28.45 28.45 0 0 1-28.45-28.45 28.45 28.45 0 0 1 28.45-28.45Z" style="fill:#fff"/>
	<path d="M128.986 65.568c-.554 0-1 .446-1 1v19.073h-12.388c-.554 0-1 .446-1 1v4.693c0 .554.446 1 1 1h18.107c.554 0 1-.446 1-1V66.568c0-.554-.446-1-1-1zm-80.75 130.919v-36.494h5.397v13.862h14.23v-13.862h5.213v36.494zm19.688-18.155H53.572v13.677h14.352zm30.973 2.944h-9.629v30.483h-5.275V155.76h5.275v20.854h9.63zm32.016-17.848h-8.586v-4.355h13.432v2.638q0 4.354-.307 8.464-.245 4.048-.981 7.973 2.821-.184 5.336-.552v4.293q-3.374.49-7.483.859-4.048.307-8.28.552v12.635h-5.275v-12.451q-1.84.061-3.618.123h-13.923v-4.478h11.285q1.288-3.864 1.963-8.034.675-4.171.797-7.667h-9.384v-4.355h14.168v2.638q0 4.293-.674 8.832-.614 4.477-1.779 8.525 2.883-.061 5.888-.184t6.01-.307q.798-3.864 1.043-7.85.307-3.987.368-7.3zm12.206 34.592v-42.26h5.274v42.259zm6.194 12.635h-39.56v-15.272h5.336v10.733h34.224zm13.126-53.054h36.493q-.123 5.398-.552 9.936-.43 4.539-.981 7.974h10.365v4.354h-53.36v-4.354h37.781q.552-3.435.92-6.624.368-3.19.49-6.686H162.44zm.552 54.158v-15.272h30.973v-6.318H162.99v-4.354h36.186v14.842h-30.973v6.747h32.445v4.355z" style="fill:#fff"/>
</svg>
