<?xml version="1.0" encoding="UTF-8" standalone="no"?>
<svg xmlns="http://www.w3.org/2000/svg" id="svg906" width="256" height="256" version="1.1" viewBox="0 0 256 256">
	<g style="fill:#fff">
		<path d="M86.968 157.616h5.275v31.525h-5.275zm5.275 55.139h-34.96V192.33h34.96Zm-5.275-15.763h-24.41v11.163h24.41Zm-38.763-24.165q0-2.944 1.043-5.459 1.104-2.576 3.005-4.416 1.963-1.901 4.54-2.944 2.575-1.104 5.642-1.104 3.005 0 5.581 1.104 2.637 1.043 4.539 2.944 1.901 1.84 2.944 4.416 1.104 2.515 1.104 5.459 0 3.005-1.104 5.581-1.043 2.515-2.944 4.416-1.902 1.84-4.539 2.883-2.576 1.043-5.581 1.043-3.067 0-5.643-1.043-2.576-1.043-4.539-2.883-1.9-1.901-3.005-4.416-1.043-2.576-1.043-5.581zm5.152 0q0 2.024.675 3.741.675 1.656 1.84 2.944 1.227 1.227 2.883 1.963 1.717.675 3.68.675 1.962 0 3.618-.675 1.656-.736 2.822-1.963 1.226-1.288 1.901-2.944.675-1.717.675-3.741 0-1.963-.675-3.68t-1.901-2.944q-1.166-1.288-2.822-1.963-1.656-.736-3.618-.736-1.963 0-3.68.736-1.656.675-2.883 1.963-1.165 1.227-1.84 2.944-.675 1.717-.675 3.68zm80.408 2.331q0 3.005-1.042 5.642-.982 2.576-2.883 4.478-1.84 1.9-4.539 3.005-2.698 1.043-6.01 1.043t-6.011-1.043q-2.699-1.104-4.6-3.005-1.84-1.902-2.883-4.478-.981-2.637-.981-5.642 0-3.006.981-5.582 1.043-2.637 2.883-4.538 1.901-1.902 4.6-2.944 2.699-1.104 6.01-1.104 3.313 0 6.011 1.104 2.699 1.042 4.539 2.944 1.901 1.9 2.883 4.538 1.042 2.576 1.042 5.582zm-5.458 0q0-4.416-2.454-6.992-2.392-2.576-6.562-2.576-4.171 0-6.624 2.576-2.392 2.576-2.392 6.992t2.392 6.992q2.453 2.576 6.624 2.576 4.17 0 6.562-2.576 2.454-2.576 2.454-6.992zm20.117 38.455h-5.09v-55.997h5.09zm-47.288-16.375h11.224q3.067 0 6.747-.062 3.68-.122 7.421-.306 3.803-.184 7.36-.491 3.619-.307 6.563-.675v4.416q-2.944.43-6.502.736-3.496.307-7.237.552-3.68.184-7.36.307t-6.93.123h-11.286zm61.334-37.782h36.493q-.123 5.398-.552 9.936-.43 4.539-.982 7.974h10.366v4.354h-53.36v-4.354h37.78q.553-3.435.92-6.624.369-3.19.492-6.686h-31.158zm.551 54.157v-15.272h30.974v-6.317H163.02v-4.355h36.187v14.843h-30.973v6.747h32.445v4.354z"/>
	</g>
	<path d="M153.568 42.027v12.13c-9.435.019-10.05-.025-17.377-.003-7.987.025-14.278 4.438-17.935 9.739-3.657 5.3-5.77 11.322-8.545 17.218-3.047 6.475-5.255 12.162-7.549 15.487-2.294 3.324-3.582 4.451-7.932 4.464-8.012.025-2.683-.038-15.466 0l.035 12.202c12.754-.039 7.41.025 15.47 0 7.988-.025 14.28-4.439 17.936-9.739 3.657-5.3 5.77-11.322 8.545-17.218 3.047-6.475 5.255-12.162 7.549-15.487 2.294-3.324 3.582-4.453 7.931-4.467 7.273-.022 7.92.022 17.338.002v13.213l18.77-18.77z" style="fill:#fff"/>
	<path d="m78.799 54.154-.035 12.201c12.783.039 7.454-.024 15.466 0 4.35.014 5.638 1.14 7.932 4.465 1.349 1.955 2.687 4.786 4.164 8.053 2.148-4.65 4.03-9.466 6.567-13.916-.229-.355-.447-.715-.688-1.064-3.657-5.3-9.948-9.714-17.935-9.739-8.06-.025-2.717.038-15.471 0zm74.77 33.164v13.745c-9.418-.02-10.066.024-17.339.001-4.35-.013-5.637-1.142-7.931-4.466-1.352-1.96-2.694-4.8-4.176-8.078-2.12 4.678-4.012 9.478-6.557 13.935.23.357.448.72.69 1.07 3.657 5.3 9.948 9.714 17.935 9.739 7.326.022 7.942-.022 17.377-.002v11.597l18.77-18.77z" style="fill:#fff"/>
</svg>
